<svg xmlns="http://www.w3.org/2000/svg" viewBox="0 0 280 280" width="280" height="280">
<rect width="280" height="280" fill="#0a0d14"/>
<rect x="2" y="2" width="36" height="36" rx="4" fill="#2c3752"/>
<rect x="42" y="2" width="36" height="36" rx="4" fill="#2c3752"/>
<rect x="82" y="2" width="36" height="36" rx="4" fill="#2c3752"/>
<rect x="122" y="2" width="36" height="36" rx="4" fill="#2c3752"/>
<rect x="162" y="2" width="36" height="36" rx="4" fill="#2c3752"/>
<rect x="202" y="2" width="36" height="36" rx="4" fill="#2c3752"/>
<rect x="242" y="2" width="36" height="36" rx="4" fill="#2c3752"/>
<rect x="2" y="42" width="36" height="36" rx="4" fill="#2c3752"/>
<rect x="42" y="42" width="36" height="36" rx="4" fill="#16243a"/>
<rect x="52" y="52" width="16" height="16" rx="3" fill="none" stroke="#f0b06a" stroke-width="2.4"/>
<rect x="82" y="42" width="36" height="36" rx="4" fill="#101728"/>
<rect x="122" y="42" width="36" height="36" rx="4" fill="#101728"/>
<rect x="162" y="42" width="36" height="36" rx="4" fill="#101728"/>
<rect x="202" y="42" width="36" height="36" rx="4" fill="#101728"/>
<rect x="242" y="42" width="36" height="36" rx="4" fill="#2c3752"/>
<rect x="2" y="82" width="36" height="36" rx="4" fill="#2c3752"/>
<rect x="42" y="82" width="36" height="36" rx="4" fill="#101728"/>
<rect x="82" y="82" width="36" height="36" rx="4" fill="#101728"/>
<rect x="122" y="82" width="36" height="36" rx="4" fill="#101728"/>
<rect x="162" y="82" width="36" height="36" rx="4" fill="#101728"/>
<rect x="202" y="82" width="36" height="36" rx="4" fill="#101728"/>
<rect x="242" y="82" width="36" height="36" rx="4" fill="#2c3752"/>
<rect x="2" y="122" width="36" height="36" rx="4" fill="#2c3752"/>
<rect x="42" y="122" width="36" height="36" rx="4" fill="#101728"/>
<rect x="82" y="122" width="36" height="36" rx="4" fill="#101728"/>
<rect x="122" y="122" width="36" height="36" rx="4" fill="#101728"/>
<rect x="162" y="122" width="36" height="36" rx="4" fill="#101728"/>
<rect x="202" y="122" width="36" height="36" rx="4" fill="#101728"/>
<rect x="242" y="122" width="36" height="36" rx="4" fill="#2c3752"/>
<rect x="2" y="162" width="36" height="36" rx="4" fill="#2c3752"/>
<rect x="42" y="162" width="36" height="36" rx="4" fill="#101728"/>
<rect x="82" y="162" width="36" height="36" rx="4" fill="#101728"/>
<rect x="122" y="162" width="36" height="36" rx="4" fill="#101728"/>
<rect x="162" y="162" width="36" height="36" rx="4" fill="#101728"/>
<rect x="202" y="162" width="36" height="36" rx="4" fill="#101728"/>
<rect x="242" y="162" width="36" height="36" rx="4" fill="#2c3752"/>
<rect x="2" y="202" width="36" height="36" rx="4" fill="#2c3752"/>
<rect x="42" y="202" width="36" height="36" rx="4" fill="#101728"/>
<rect x="82" y="202" width="36" height="36" rx="4" fill="#101728"/>
<rect x="122" y="202" width="36" height="36" rx="4" fill="#101728"/>
<rect x="162" y="202" width="36" height="36" rx="4" fill="#101728"/>
<rect x="202" y="202" width="36" height="36" rx="4" fill="#101728"/>
<rect x="242" y="202" width="36" height="36" rx="4" fill="#2c3752"/>
<rect x="2" y="242" width="36" height="36" rx="4" fill="#2c3752"/>
<rect x="42" y="242" width="36" height="36" rx="4" fill="#2c3752"/>
<rect x="82" y="242" width="36" height="36" rx="4" fill="#2c3752"/>
<rect x="122" y="242" width="36" height="36" rx="4" fill="#2c3752"/>
<rect x="162" y="242" width="36" height="36" rx="4" fill="#2c3752"/>
<rect x="202" y="242" width="36" height="36" rx="4" fill="#2c3752"/>
<rect x="242" y="242" width="36" height="36" rx="4" fill="#2c3752"/>
<polyline points="140.0,60.0 140.0,60.0 100.0,60.0" fill="none" stroke="#6ea8fe" stroke-opacity="0.4" stroke-width="3" stroke-linejoin="round" stroke-linecap="round"/>
<rect x="49" y="49" width="22" height="22" rx="4" fill="#1f4d3d" stroke="#59d3a8" stroke-width="2.4"/>
<circle cx="100.0" cy="60.0" r="8.8" fill="#e8edf7" stroke="#0a0d14" stroke-width="3"/>
<text x="10" y="270" fill="#8d9bb3" font-family="ui-monospace, Menlo, monospace" font-size="11">sokoban-1 · solved in 1 steps (optimal 1)</text>
</svg>
